<svg width="16" height="16" viewBox="0 0 16 16" fill="none" xmlns="http://www.w3.org/2000/svg">
  <defs>
    <linearGradient id="favicon16Gradient" x1="0%" y1="0%" x2="100%" y2="100%">
      <stop offset="0%" style="stop-color:#60a5fa"/>
      <stop offset="100%" style="stop-color:#3b82f6"/>
    </linearGradient>
  </defs>

  <!-- Background -->
  <rect width="16" height="16" rx="3" fill="#1e293b"/>

  <!-- Letter E -->
  <path d="M2 3h5v1.5h-2.5v1.5h2v1.5h-2v1.5H7V13H2V3z" fill="url(#favicon16Gradient)"/>

  <!-- Letter P -->
  <path d="M8.5 3h3c.8 0 1.5.7 1.5 1.5v1c0 .8-.7 1.5-1.5 1.5h-1.5V13h-1V3zm1 1.5v1.5h1.5c.3 0 .5-.2.5-.5v-.5c0-.3-.2-.5-.5-.5h-1.5z" fill="url(#favicon16Gradient)"/>

  <!-- Accent dot -->
  <circle cx="13" cy="3" r="1" fill="#60a5fa" opacity="0.9"/>
</svg>
