<svg width="32" height="32" viewBox="0 0 32 32" fill="none" xmlns="http://www.w3.org/2000/svg">
  <defs>
    <linearGradient id="faviconGradient" x1="0%" y1="0%" x2="100%" y2="100%">
      <stop offset="0%" style="stop-color:#60a5fa"/>
      <stop offset="100%" style="stop-color:#3b82f6"/>
    </linearGradient>
  </defs>

  <!-- Background -->
  <rect width="32" height="32" rx="6" fill="#1e293b"/>
  <rect width="32" height="32" rx="6" fill="url(#faviconGradient)" opacity="0.15"/>

  <!-- Letter E -->
  <path d="M8 9h8v3h-5v3h4v3h-4v3h5v3H8V9z" fill="url(#faviconGradient)"/>

  <!-- Letter P -->
  <path d="M17 9h6c1.5 0 3 1 3 3v1c0 2-1.5 3-3 3h-3v5h-3V9zm3 4h2c.5 0 1-.5 1-1s-.5-1-1-1h-2v2z" fill="url(#faviconGradient)"/>

  <!-- Accent dot -->
  <circle cx="27" cy="5" r="2" fill="#60a5fa" opacity="0.8"/>
</svg>
