<svg width="32" height="32" viewBox="0 0 32 32" fill="none" xmlns="http://www.w3.org/2000/svg">
  <!-- Background gradient definitions -->
  <defs>
    <linearGradient id="logoGradient" x1="0%" y1="0%" x2="100%" y2="100%">
      <stop offset="0%" style="stop-color:#60a5fa;stop-opacity:1" />
      <stop offset="100%" style="stop-color:#3b82f6;stop-opacity:1" />
    </linearGradient>
    <linearGradient id="logoGradientHover" x1="0%" y1="0%" x2="100%" y2="100%">
      <stop offset="0%" style="stop-color:#93c5fd;stop-opacity:1" />
      <stop offset="100%" style="stop-color:#60a5fa;stop-opacity:1" />
    </linearGradient>
    <filter id="glow">
      <feGaussianBlur stdDeviation="3" result="coloredBlur"/>
      <feMerge>
        <feMergeNode in="coloredBlur"/>
        <feMergeNode in="SourceGraphic"/>
      </feMerge>
    </filter>
  </defs>

  <!-- Background rounded square -->
  <rect x="2" y="2" width="28" height="28" rx="6" ry="6" fill="#1e293b" stroke="url(#logoGradient)" stroke-width="1.5" opacity="0.9"/>

  <!-- Inner glow effect -->
  <rect x="2" y="2" width="28" height="28" rx="6" ry="6" fill="url(#logoGradient)" opacity="0.15"/>

  <!-- Letter E -->
  <g transform="translate(7, 9)">
    <path d="M 0 0 L 7 0 L 7 2 L 2 2 L 2 6 L 6 6 L 6 8 L 2 8 L 2 12 L 7 12 L 7 14 L 0 14 Z" fill="url(#logoGradient)"/>
  </g>

  <!-- Letter P -->
  <g transform="translate(16, 9)">
    <path d="M 0 0 L 6 0 Q 8 0 8 2 L 8 5 Q 8 7 6 7 L 2 7 L 2 14 L 0 14 Z M 2 2 L 2 5 L 5 5 Q 6 5 6 4 L 6 3 Q 6 2 5 2 Z" fill="url(#logoGradient)"/>
  </g>

  <!-- Decorative dot accent -->
  <circle cx="26" cy="6" r="1.5" fill="#60a5fa" opacity="0.8" filter="url(#glow)"/>
</svg>
