<svg width="56" height="56" viewBox="0 0 56 56" fill="none" xmlns="http://www.w3.org/2000/svg">
<g filter="url(#filter0_d_19_12)">
<path fill-rule="evenodd" clip-rule="evenodd" d="M25.7739 23.9799L17.4414 32.1831L9.10902 40.3862L11.0152 42.2628L27.6801 25.8566L45.0938 43L47 41.1234L29.5863 23.9799L46.9593 6.87663L45.053 5L27.6801 22.1033L10.9062 5.58977L9 7.4664L25.7739 23.9799Z" fill="url(#paint0_linear_19_12)"/>
<path d="M10.6168 48C6.96245 48 4 45.0376 4 41.3832C4 37.7288 6.96246 34.7664 10.6168 34.7664C14.2712 34.7664 17.2336 37.7288 17.2336 41.3832C17.2336 45.0376 14.2712 48 10.6168 48Z" fill="url(#paint1_linear_19_12)"/>
<path d="M10.6168 45.9813C8.07735 45.9813 6.01869 43.9227 6.01869 41.3832C6.01869 38.8437 8.07735 36.785 10.6168 36.785C13.1563 36.785 15.215 38.8437 15.215 41.3832C15.215 43.9227 13.1563 45.9813 10.6168 45.9813Z" fill="white"/>
<path d="M10.6168 44.7477C8.75867 44.7477 7.25234 43.2413 7.25234 41.3832C7.25234 39.525 8.75867 38.0187 10.6168 38.0187C12.475 38.0187 13.9813 39.525 13.9813 41.3832C13.9813 43.2413 12.475 44.7477 10.6168 44.7477Z" fill="url(#paint2_linear_19_12)"/>
<path d="M10.6168 43.8505C9.25418 43.8505 8.14954 42.7458 8.14954 41.3832C8.14954 40.0205 9.25418 38.9159 10.6168 38.9159C11.9795 38.9159 13.0841 40.0205 13.0841 41.3832C13.0841 42.7458 11.9795 43.8505 10.6168 43.8505Z" fill="white"/>
<path d="M45.3832 13.2336C41.7288 13.2336 38.7664 10.2712 38.7664 6.61682C38.7664 2.96245 41.7288 -4.48968e-07 45.3832 -2.8923e-07C49.0375 -1.29493e-07 52 2.96245 52 6.61682C52 10.2712 49.0375 13.2336 45.3832 13.2336Z" fill="url(#paint3_linear_19_12)"/>
<path d="M45.3832 11.215C42.8437 11.215 40.785 9.1563 40.785 6.61682C40.785 4.07734 42.8437 2.01869 45.3832 2.01869C47.9227 2.01869 49.9813 4.07735 49.9813 6.61682C49.9813 9.1563 47.9227 11.215 45.3832 11.215Z" fill="white"/>
<path d="M45.3832 9.98131C43.525 9.98131 42.0187 8.47498 42.0187 6.61682C42.0187 4.75867 43.525 3.25234 45.3832 3.25234C47.2413 3.25234 48.7477 4.75867 48.7477 6.61682C48.7477 8.47498 47.2413 9.98131 45.3832 9.98131Z" fill="url(#paint4_linear_19_12)"/>
<path d="M45.3832 9.08411C44.0205 9.08411 42.9159 7.97947 42.9159 6.61682C42.9159 5.25418 44.0205 4.14953 45.3832 4.14953C46.7458 4.14953 47.8505 5.25418 47.8505 6.61682C47.8505 7.97947 46.7458 9.08411 45.3832 9.08411Z" fill="white"/>
<path d="M28 30.6168C24.3456 30.6168 21.3832 27.6544 21.3832 24C21.3832 20.3456 24.3456 17.3832 28 17.3832C31.6544 17.3832 34.6168 20.3456 34.6168 24C34.6168 27.6544 31.6544 30.6168 28 30.6168Z" fill="url(#paint5_linear_19_12)"/>
<path d="M28 28.5981C25.4605 28.5981 23.4019 26.5395 23.4019 24C23.4019 21.4605 25.4605 19.4019 28 19.4019C30.5395 19.4019 32.5981 21.4605 32.5981 24C32.5981 26.5395 30.5395 28.5981 28 28.5981Z" fill="white"/>
<path d="M28 27.3645C26.1418 27.3645 24.6355 25.8582 24.6355 24C24.6355 22.1418 26.1418 20.6355 28 20.6355C29.8582 20.6355 31.3645 22.1418 31.3645 24C31.3645 25.8582 29.8582 27.3645 28 27.3645Z" fill="url(#paint6_linear_19_12)"/>
<path d="M28 26.4673C26.6374 26.4673 25.5327 25.3626 25.5327 24C25.5327 22.6374 26.6374 21.5327 28 21.5327C29.3626 21.5327 30.4673 22.6374 30.4673 24C30.4673 25.3626 29.3626 26.4673 28 26.4673Z" fill="white"/>
<path d="M10.6168 13.2336C6.96246 13.2336 4 10.2712 4 6.61682C4 2.96245 6.96246 -1.96865e-06 10.6168 -1.80892e-06C14.2712 -1.64918e-06 17.2336 2.96245 17.2336 6.61682C17.2336 10.2712 14.2712 13.2336 10.6168 13.2336Z" fill="url(#paint7_linear_19_12)"/>
<path d="M10.6168 11.215C8.07735 11.215 6.0187 9.1563 6.0187 6.61682C6.0187 4.07734 8.07735 2.01869 10.6168 2.01869C13.1563 2.01869 15.215 4.07734 15.215 6.61682C15.215 9.1563 13.1563 11.215 10.6168 11.215Z" fill="white"/>
<path d="M10.6168 9.98131C8.75867 9.98131 7.25234 8.47498 7.25234 6.61682C7.25234 4.75867 8.75867 3.25233 10.6168 3.25233C12.475 3.25234 13.9813 4.75867 13.9813 6.61682C13.9813 8.47498 12.475 9.98131 10.6168 9.98131Z" fill="url(#paint8_linear_19_12)"/>
<path d="M10.6168 9.08411C9.25418 9.08411 8.14954 7.97947 8.14954 6.61682C8.14954 5.25417 9.25418 4.14953 10.6168 4.14953C11.9795 4.14953 13.0841 5.25417 13.0841 6.61682C13.0841 7.97947 11.9795 9.08411 10.6168 9.08411Z" fill="white"/>
<path d="M45.3832 48C41.7288 48 38.7664 45.0376 38.7664 41.3832C38.7664 37.7288 41.7288 34.7664 45.3832 34.7664C49.0375 34.7664 52 37.7288 52 41.3832C52 45.0376 49.0375 48 45.3832 48Z" fill="url(#paint9_linear_19_12)"/>
<path d="M45.3832 45.9813C42.8437 45.9813 40.785 43.9227 40.785 41.3832C40.785 38.8437 42.8437 36.7851 45.3832 36.7851C47.9227 36.7851 49.9813 38.8437 49.9813 41.3832C49.9813 43.9227 47.9227 45.9813 45.3832 45.9813Z" fill="white"/>
<path d="M45.3832 44.7477C43.525 44.7477 42.0187 43.2413 42.0187 41.3832C42.0187 39.525 43.525 38.0187 45.3832 38.0187C47.2413 38.0187 48.7477 39.525 48.7477 41.3832C48.7477 43.2413 47.2413 44.7477 45.3832 44.7477Z" fill="url(#paint10_linear_19_12)"/>
<path d="M45.3832 43.8505C44.0205 43.8505 42.9159 42.7458 42.9159 41.3832C42.9159 40.0205 44.0205 38.9159 45.3832 38.9159C46.7458 38.9159 47.8505 40.0205 47.8505 41.3832C47.8505 42.7458 46.7458 43.8505 45.3832 43.8505Z" fill="white"/>
</g>
<defs>
<filter id="filter0_d_19_12" x="0" y="0" width="56" height="56" filterUnits="userSpaceOnUse" color-interpolation-filters="sRGB">
<feFlood flood-opacity="0" result="BackgroundImageFix"/>
<feColorMatrix in="SourceAlpha" type="matrix" values="0 0 0 0 0 0 0 0 0 0 0 0 0 0 0 0 0 0 127 0" result="hardAlpha"/>
<feOffset dy="4"/>
<feGaussianBlur stdDeviation="2"/>
<feComposite in2="hardAlpha" operator="out"/>
<feColorMatrix type="matrix" values="0 0 0 0 0 0 0 0 0 0 0 0 0 0 0 0 0 0 0.25 0"/>
<feBlend mode="normal" in2="BackgroundImageFix" result="effect1_dropShadow_19_12"/>
<feBlend mode="normal" in="SourceGraphic" in2="effect1_dropShadow_19_12" result="shape"/>
</filter>
<linearGradient id="paint0_linear_19_12" x1="5.81414" y1="24.02" x2="52.2418" y2="24.02" gradientUnits="userSpaceOnUse">
<stop stop-color="#79D4FD"/>
<stop offset="1" stop-color="#159DDA"/>
</linearGradient>
<linearGradient id="paint1_linear_19_12" x1="4" y1="24" x2="52" y2="24" gradientUnits="userSpaceOnUse">
<stop stop-color="#79D4FD"/>
<stop offset="1" stop-color="#0091D3"/>
</linearGradient>
<linearGradient id="paint2_linear_19_12" x1="4" y1="24" x2="52" y2="24" gradientUnits="userSpaceOnUse">
<stop stop-color="#79D4FD"/>
<stop offset="1" stop-color="#0091D3"/>
</linearGradient>
<linearGradient id="paint3_linear_19_12" x1="4" y1="24" x2="52" y2="24" gradientUnits="userSpaceOnUse">
<stop stop-color="#79D4FD"/>
<stop offset="1" stop-color="#0091D3"/>
</linearGradient>
<linearGradient id="paint4_linear_19_12" x1="4" y1="24" x2="52" y2="24" gradientUnits="userSpaceOnUse">
<stop stop-color="#79D4FD"/>
<stop offset="1" stop-color="#0091D3"/>
</linearGradient>
<linearGradient id="paint5_linear_19_12" x1="4" y1="24" x2="52" y2="24" gradientUnits="userSpaceOnUse">
<stop stop-color="#79D4FD"/>
<stop offset="1" stop-color="#0091D3"/>
</linearGradient>
<linearGradient id="paint6_linear_19_12" x1="4" y1="24" x2="52" y2="24" gradientUnits="userSpaceOnUse">
<stop stop-color="#79D4FD"/>
<stop offset="1" stop-color="#0091D3"/>
</linearGradient>
<linearGradient id="paint7_linear_19_12" x1="4" y1="24" x2="52" y2="24" gradientUnits="userSpaceOnUse">
<stop stop-color="#79D4FD"/>
<stop offset="1" stop-color="#0091D3"/>
</linearGradient>
<linearGradient id="paint8_linear_19_12" x1="4" y1="24" x2="52" y2="24" gradientUnits="userSpaceOnUse">
<stop stop-color="#79D4FD"/>
<stop offset="1" stop-color="#0091D3"/>
</linearGradient>
<linearGradient id="paint9_linear_19_12" x1="4" y1="24" x2="52" y2="24" gradientUnits="userSpaceOnUse">
<stop stop-color="#79D4FD"/>
<stop offset="1" stop-color="#0091D3"/>
</linearGradient>
<linearGradient id="paint10_linear_19_12" x1="4" y1="24" x2="52" y2="24" gradientUnits="userSpaceOnUse">
<stop stop-color="#79D4FD"/>
<stop offset="1" stop-color="#0091D3"/>
</linearGradient>
</defs>
</svg>
